<mxfile host="Electron" modified="2023-08-20T00:28:30.268Z" agent="Mozilla/5.0 (Windows NT 10.0; Win64; x64) AppleWebKit/537.36 (KHTML, like Gecko) draw.io/21.6.8 Chrome/114.0.5735.289 Electron/25.5.0 Safari/537.36" etag="BTu7owkpk8llvURG6yEV" version="21.6.8" type="device">
  <diagram name="PÃ¡gina-1" id="imLpWpPhw3t9OOqG3p1B">
    <mxGraphModel dx="2127" dy="1410" grid="0" gridSize="10" guides="1" tooltips="1" connect="1" arrows="1" fold="1" page="0" pageScale="1" pageWidth="827" pageHeight="1169" math="0" shadow="0">
      <root>
        <mxCell id="0" />
        <mxCell id="1" parent="0" />
        <mxCell id="zWxOk_o_pw7uitjvd35M-3" value="" style="group" vertex="1" connectable="0" parent="1">
          <mxGeometry x="-336" y="-24" width="271" height="338" as="geometry" />
        </mxCell>
        <mxCell id="zWxOk_o_pw7uitjvd35M-1" value="" style="image;points=[];aspect=fixed;html=1;align=center;shadow=0;dashed=0;image=img/lib/allied_telesis/computer_and_terminals/Personal_Computer.svg;sketch=1;hachureGap=4;jiggle=2;curveFitting=1;fontFamily=Architects Daughter;fontSource=https%3A%2F%2Ffonts.googleapis.com%2Fcss%3Ffamily%3DArchitects%2BDaughter;fontSize=20;" vertex="1" parent="zWxOk_o_pw7uitjvd35M-3">
          <mxGeometry width="168.29228014265118" height="228.08304120191215" as="geometry" />
        </mxCell>
        <mxCell id="zWxOk_o_pw7uitjvd35M-2" value="&lt;font style=&quot;font-size: 34px;&quot;&gt;Admin&lt;/font&gt;" style="text;html=1;strokeColor=none;fillColor=none;align=center;verticalAlign=middle;whiteSpace=wrap;rounded=0;fontSize=20;fontFamily=Architects Daughter;" vertex="1" parent="zWxOk_o_pw7uitjvd35M-3">
          <mxGeometry x="2" y="223" width="189" height="78.92" as="geometry" />
        </mxCell>
      </root>
    </mxGraphModel>
  </diagram>
</mxfile>
